<svg width="48" height="48" viewBox="0 0 48 48" xmlns="http://www.w3.org/2000/svg">
  <defs>
    <linearGradient id="logoGradient" x1="0%" y1="0%" x2="100%" y2="100%">
      <stop offset="0%" stop-color="#0d47a1" />
      <stop offset="50%" stop-color="#1976d2" />
      <stop offset="100%" stop-color="#00bfa5" />
    </linearGradient>
    <filter id="shadow" x="-20%" y="-20%" width="140%" height="140%">
      <feDropShadow dx="0" dy="2" stdDeviation="2" flood-color="#000" flood-opacity="0.3"/>
    </filter>
  </defs>
  <circle cx="24" cy="24" r="22" fill="#1565c0" filter="url(#shadow)"/>
  <circle cx="24" cy="24" r="18" fill="#1976d2"/>
  <path d="M34,24c0,5.5-4.5,10-10,10c-5.5,0-10-4.5-10-10c0-5.5,4.5-10,10-10c2,0,3.9,0.6,5.5,1.7l-1.5,2.8
    C26.8,17.9,25.4,17.5,24,17.5c-3.6,0-6.5,2.9-6.5,6.5c0,3.6,2.9,6.5,6.5,6.5c3.6,0,6.5-2.9,6.5-6.5c0-0.9-0.2-1.7-0.5-2.5h-6v-3h9
    C33.7,19.8,34,21.8,34,24z" fill="white"/>
  <path d="M24,14c-5.5,0-10,4.5-10,10h3c0-3.9,3.1-7,7-7V14z" fill="#00bfa5"/>
</svg>

