<svg width="48" height="48" viewBox="0 0 48 48" xmlns="http://www.w3.org/2000/svg">
  <defs>
    <linearGradient id="logoGradient" x1="0%" y1="0%" x2="100%" y2="100%">
      <stop offset="0%" stop-color="#1565C0" />
      <stop offset="50%" stop-color="#1E88E5" />
      <stop offset="100%" stop-color="#00BFA5" />
    </linearGradient>
    <filter id="shadow" x="-20%" y="-20%" width="140%" height="140%">
      <feDropShadow dx="0" dy="2" stdDeviation="2" flood-color="#000" flood-opacity="0.3"/>
    </filter>
  </defs>
  <circle cx="24" cy="24" r="22" fill="white" filter="url(#shadow)"/>
  <path d="M33.5,24c0,5.2-4.3,9.5-9.5,9.5c-5.2,0-9.5-4.3-9.5-9.5h4c0,3,2.5,5.5,5.5,5.5c3,0,5.5-2.5,5.5-5.5
    c0-3-2.5-5.5-5.5-5.5c-1,0-2,0.3-2.8,0.8l2.8,2.8h-8v-8l3,3c1.4-0.9,3.1-1.5,5-1.5C29.2,14.5,33.5,18.8,33.5,24z" 
    fill="url(#logoGradient)"/>
</svg>

