<svg width="200" height="200" viewBox="0 0 200 200" fill="none" xmlns="http://www.w3.org/2000/svg">
  <circle cx="100" cy="100" r="90" fill="#1E88E5"/>
  <path d="M60 80C60 68.9543 68.9543 60 80 60H120C131.046 60 140 68.9543 140 80V120C140 131.046 131.046 140 120 140H80C68.9543 140 60 131.046 60 120V80Z" fill="white"/>
  <path d="M85 95C85 89.4772 89.4772 85 95 85H105C110.523 85 115 89.4772 115 95V105C115 110.523 110.523 115 105 115H95C89.4772 115 85 110.523 85 105V95Z" fill="#1E88E5"/>
  <path d="M50 110C50 104.477 54.4772 100 60 100H70C75.5228 100 80 104.477 80 110V130C80 135.523 75.5228 140 70 140H60C54.4772 140 50 135.523 50 130V110Z" fill="#1E88E5"/>
  <path d="M120 100C120 94.4772 124.477 90 130 90H140C145.523 90 150 94.4772 150 100V130C150 135.523 145.523 140 140 140H130C124.477 140 120 135.523 120 130V100Z" fill="#1E88E5"/>
</svg>

